<?xml version="1.0" encoding="UTF-8"?>
<svg id="Livello_1" data-name="Livello 1" xmlns="http://www.w3.org/2000/svg" viewBox="0 0 2000 369.94">
  <defs>
    <style>
      .cls-1 {
        fill: #fff;
        stroke-width: 0px;
      }
    </style>
  </defs>
  <path class="cls-1" d="M238.45,6.45c-1.26-1.56-3.16-2.46-5.16-2.46h-40.85c-3.14,0-5.85,2.2-6.5,5.26l-29.39,138.49c-4.02,19.08-7.22,35.41-9.98,51.17l-6.77-188.52c-.13-3.57-3.06-6.4-6.64-6.4h-52.3c-3.14,0-5.84,2.19-6.5,5.26L.15,357.93c-.42,1.96.07,4,1.33,5.56,1.26,1.56,3.16,2.46,5.16,2.46h40.85c3.14,0,5.84-2.19,6.5-5.26l29.89-140.49c4.2-19.97,7.61-37.47,10.55-54.53l7.19,193.88c.13,3.57,3.06,6.4,6.64,6.4h50.81c3.14,0,5.84-2.19,6.5-5.26L239.78,12.01c.42-1.96-.07-4-1.33-5.56Z"/>
  <path class="cls-1" d="M359.27,0c-97.49,0-128.19,224.55-128.19,288.08,0,71.22,35.68,81.86,56.95,81.86,97.49,0,128.19-224.55,128.19-288.08C416.22,10.63,380.54,0,359.27,0ZM294.01,314.32c-3.53,0-5.81-8.73-5.81-22.25,0-25.94,8.03-85.59,21.48-140.51,17.33-70.81,34.33-95.93,43.61-95.93,3.53,0,5.81,8.73,5.81,22.25,0,25.94-8.03,85.59-21.48,140.51-17.33,70.81-34.33,95.93-43.61,95.93Z"/>
  <path class="cls-1" d="M540.81,12c.42-1.96-.08-4-1.34-5.56-1.26-1.56-3.16-2.46-5.16-2.46h-45.83c-3.13,0-5.84,2.19-6.5,5.26l-65.25,306.35s0,0,0,0l-8.97,42.34c-.42,1.96.08,4,1.34,5.56,1.26,1.56,3.16,2.46,5.16,2.46h45.83c3.13,0,5.84-2.19,6.5-5.26l65.26-306.36,8.97-42.34Z"/>
  <path class="cls-1" d="M633.31,148.03c-8.1-10.48-12.56-26.02-12.56-43.76,0-27.74,10.42-48.65,24.24-48.65,3.46,0,4.85,1.14,5.75,2.25,8.29,10.2-.43,51.79-3.29,65.46-.41,1.96.08,4,1.35,5.55,1.26,1.55,3.15,2.46,5.15,2.46h45.33c3.16,0,5.89-2.23,6.51-5.33,10.14-50.37,6.67-86.43-10.31-107.17-10.24-12.5-24.88-18.84-43.53-18.84-50.36,0-88.34,47.4-88.34,110.25,0,31.6,9.07,58.98,27.75,83.71l12.51,16.51c9.78,12.58,14.54,28.52,14.54,48.72,0,34.05-13.88,55.13-26.73,55.13-3.19,0-4.59-1.16-5.53-2.3-9.86-11.86-.48-62.4,2.6-79.01.36-1.94-.16-3.94-1.42-5.46-1.26-1.52-3.13-2.39-5.11-2.39h-45.33c-3.15,0-5.86,2.21-6.5,5.29-11.5,55.45-7.72,96.86,10.91,119.75,10.66,13.1,25.61,19.74,44.41,19.74,52.05,0,89.83-50.35,89.83-119.72,0-32.62-8.9-58.25-29.74-85.7l-12.49-16.49Z"/>
  <path class="cls-1" d="M874.23,3.98h-99.13c-3.14,0-5.84,2.19-6.5,5.26l-74.22,348.69c-.42,1.96.07,4,1.33,5.56,1.26,1.56,3.16,2.46,5.16,2.46h102.12c3.14,0,5.85-2.2,6.5-5.27l8.97-42.34c.42-1.96-.08-4-1.34-5.56-1.26-1.56-3.16-2.46-5.16-2.46h-48.07l22.06-102.78h43.95c3.14,0,5.85-2.2,6.5-5.27l8.97-42.34c.42-1.96-.08-4-1.34-5.56s-3.16-2.46-5.16-2.46h-41.11l19.6-92.32h47.92c3.14,0,5.85-2.2,6.5-5.27l8.97-42.34c.42-1.96-.08-4-1.34-5.56-1.26-1.56-3.16-2.46-5.16-2.46Z"/>
  <path class="cls-1" d="M1153.37,6.45c-1.26-1.56-3.16-2.46-5.16-2.46h-45.83c-3.14,0-5.84,2.19-6.5,5.26l-30.76,144.68h-32.24l30.17-141.91c.42-1.96-.07-4-1.33-5.56-1.26-1.56-3.16-2.46-5.16-2.46h-45.83c-3.14,0-5.84,2.19-6.5,5.26l-74.22,348.69c-.42,1.96.07,4,1.33,5.56,1.26,1.56,3.16,2.46,5.16,2.46h45.83c3.13,0,5.84-2.19,6.5-5.26l32.25-151.16h32.25l-31.66,148.39c-.42,1.96.07,4.01,1.33,5.56,1.26,1.56,3.16,2.46,5.16,2.46h45.83c3.14,0,5.84-2.19,6.5-5.26L1154.7,12.01c.42-1.96-.07-4-1.33-5.56Z"/>
  <path class="cls-1" d="M1280.09,154.39c-1.26-1.56-3.16-2.46-5.16-2.46h-41.11l19.6-92.32h47.92c3.14,0,5.85-2.2,6.5-5.27l8.97-42.34c.42-1.96-.08-4-1.34-5.56-1.26-1.56-3.16-2.46-5.16-2.46h-99.13c-3.14,0-5.84,2.19-6.5,5.26l-74.22,348.69c-.42,1.96.07,4,1.33,5.56,1.26,1.56,3.16,2.46,5.16,2.46h102.12c3.14,0,5.85-2.2,6.5-5.27l8.97-42.34c.42-1.96-.08-4-1.34-5.56-1.26-1.56-3.16-2.46-5.16-2.46h-48.07l22.06-102.78h43.95c3.14,0,5.85-2.2,6.5-5.27l8.97-42.34c.42-1.96-.08-4-1.34-5.56Z"/>
  <path class="cls-1" d="M1413.81,3.98h-54.79c-3.14,0-5.84,2.19-6.5,5.26l-74.22,348.69c-.42,1.96.07,4,1.33,5.56,1.26,1.56,3.16,2.46,5.16,2.46h45.83c3.14,0,5.84-2.19,6.5-5.26l30.76-144.68h5.58c5.97,0,10.01,1.26,12.01,3.76,3,3.74,3.14,11.82.42,24.08l-24.41,114.07c-.42,1.96.07,4.01,1.33,5.57,1.26,1.56,3.16,2.47,5.16,2.47h46.33c3.13,0,5.84-2.19,6.49-5.25l22.92-106.64c5.58-26.72,7.38-52.99-13.61-67.68,36.23-22.55,52.61-66.82,52.61-103.54,0-48.65-26.4-78.87-68.91-78.87ZM1401.26,59.61h8.07c7.15,0,14.78,1.8,14.78,23.25,0,28.19-13.76,78.54-41.18,78.54h-3.26l21.59-101.78Z"/>
  <path class="cls-1" d="M1611.18,0c-97.49,0-128.19,224.55-128.19,288.08,0,71.22,35.68,81.86,56.95,81.86,97.49,0,128.19-224.55,128.19-288.08,0-71.22-35.68-81.86-56.95-81.86ZM1545.92,314.32c-3.53,0-5.81-8.73-5.81-22.25,0-25.94,8.03-85.59,21.48-140.51,17.33-70.81,34.33-95.93,43.61-95.93,3.53,0,5.81,8.73,5.81,22.25,0,25.94-8.03,85.59-21.48,140.51-17.33,70.81-34.33,95.93-43.61,95.93Z"/>
  <path class="cls-1" d="M1804.15,151.93h-41.11l19.6-92.32h47.92c3.14,0,5.85-2.2,6.5-5.27l8.97-42.34c.42-1.96-.08-4-1.34-5.56-1.26-1.56-3.16-2.46-5.16-2.46h-99.13c-3.14,0-5.84,2.19-6.5,5.26l-74.22,348.69c-.42,1.96.07,4,1.33,5.56,1.26,1.56,3.16,2.46,5.16,2.46h102.12c3.14,0,5.85-2.2,6.5-5.27l8.97-42.34c.42-1.96-.08-4-1.34-5.56-1.26-1.56-3.16-2.46-5.16-2.46h-48.07l22.06-102.78h43.95c3.14,0,5.85-2.2,6.5-5.27l8.97-42.34c.42-1.96-.08-4-1.34-5.56s-3.16-2.46-5.16-2.46Z"/>
  <path class="cls-1" d="M1984.02,18.84c-10.24-12.5-24.88-18.84-43.53-18.84-50.36,0-88.34,47.4-88.34,110.25,0,31.6,9.07,58.98,27.75,83.71l12.51,16.51c9.78,12.58,14.54,28.52,14.54,48.72,0,34.05-13.88,55.13-26.73,55.13-3.19,0-4.59-1.16-5.53-2.3-9.86-11.86-.48-62.4,2.6-79.01.36-1.94-.16-3.94-1.42-5.46-1.26-1.52-3.13-2.39-5.11-2.39h-45.33c-3.15,0-5.87,2.21-6.5,5.29-11.5,55.45-7.72,96.86,10.91,119.75,10.66,13.1,25.61,19.74,44.41,19.74,52.05,0,89.83-50.35,89.83-119.72,0-32.62-8.9-58.25-29.74-85.7l-12.49-16.49c-8.1-10.48-12.56-26.02-12.56-43.76,0-27.74,10.42-48.65,24.24-48.65,3.46,0,4.85,1.14,5.75,2.25,8.29,10.2-.43,51.79-3.29,65.46-.41,1.96.08,4,1.34,5.55,1.26,1.55,3.16,2.46,5.16,2.46h45.33c3.16,0,5.89-2.23,6.51-5.33,10.14-50.37,6.67-86.43-10.31-107.17Z"/>
</svg>