<?xml version="1.0" encoding="UTF-8"?>
<svg id="Livello_1" data-name="Livello 1" xmlns="http://www.w3.org/2000/svg" viewBox="0 0 1070 769.3">
  <defs>
    <style>
      .cls-1 {
        fill: #fff;
        stroke-width: 0px;
      }
    </style>
  </defs>
  <path class="cls-1" d="M71.29,368.09h40.71c3.91,0,7.28-2.73,8.09-6.55l29.79-140.04c2.96-14.08,5.53-26.92,7.82-39.25l6.6,177.88c.16,4.45,3.82,7.97,8.27,7.97h50.65c3.91,0,7.28-2.73,8.09-6.55L305.3,13.97c.52-2.44-.09-4.99-1.66-6.93-1.57-1.94-3.94-3.07-6.43-3.07h-40.72c-3.91,0-7.28,2.73-8.09,6.56l-29.3,138.05c-2.75,13.06-5.12,24.82-7.22,36l-6.2-172.63c-.16-4.45-3.82-7.98-8.27-7.98h-52.14c-3.91,0-7.28,2.73-8.09,6.55L63.19,358.09c-.52,2.44.09,4.99,1.66,6.93,1.57,1.94,3.94,3.07,6.43,3.07Z"/>
  <path class="cls-1" d="M351.78,372.06c42.41,0,77.74-41.96,102.19-121.34,19.99-64.91,27.24-135.71,27.24-167.47C481.21,10.82,444.6,0,422.78,0c-42.41,0-77.74,41.96-102.19,121.34-19.99,64.91-27.24,135.71-27.24,167.47,0,72.44,36.61,83.25,58.42,83.25ZM416.82,58.76c.82,0,4.14,3.65,4.14,20.52,0,25.76-7.99,85.05-21.36,139.67-18.27,74.64-35.37,94.36-41.86,94.36-.82,0-4.14-3.65-4.14-20.52,0-25.76,7.99-85.04,21.36-139.66,18.27-74.64,35.37-94.36,41.86-94.36Z"/>
  <path class="cls-1" d="M478.44,315.9l-8.94,42.2c-.52,2.44.1,4.99,1.67,6.92,1.57,1.94,3.93,3.07,6.43,3.07h45.68c3.91,0,7.28-2.73,8.09-6.55l65.05-305.37,8.94-42.2c.52-2.44-.1-4.99-1.67-6.93-1.57-1.94-3.93-3.06-6.43-3.06h-45.68c-3.91,0-7.28,2.73-8.09,6.55l-65.05,305.36s0,0,0,0Z"/>
  <path class="cls-1" d="M665.31,212.46c9.52,12.24,14.15,27.79,14.15,47.55,0,32.92-12.97,53.29-24.99,53.29-2.35,0-3.4-.68-4.24-1.7-6.19-7.44-5.2-33.48,2.94-77.4.45-2.42-.2-4.91-1.77-6.8-1.57-1.89-3.91-2.98-6.36-2.98h-45.18c-3.92,0-7.31,2.75-8.1,6.59-11.56,55.78-7.69,97.53,11.21,120.75,10.96,13.46,26.29,20.29,45.55,20.29,52.84,0,91.2-50.88,91.2-120.99,0-32.9-8.97-58.75-29.98-86.43l-12.46-16.45c-7.85-10.16-12.18-25.29-12.18-42.6,0-26.27,9.89-46.84,22.51-46.84,3.12,0,3.99,1.06,4.45,1.64,5.15,6.34,3.93,27.83-3.62,63.86-.51,2.44.1,4.98,1.68,6.91,1.57,1.93,3.93,3.06,6.42,3.06h45.18c3.94,0,7.34-2.78,8.11-6.64,10.21-50.72,6.64-87.12-10.61-108.2-10.53-12.87-25.56-19.39-44.67-19.39-51.14,0-89.71,47.96-89.71,111.55,0,31.87,9.16,59.49,28,84.44l12.48,16.47Z"/>
  <path class="cls-1" d="M756.87,365.02c1.57,1.94,3.93,3.07,6.43,3.07h101.79c3.91,0,7.29-2.74,8.1-6.56l8.94-42.2c.52-2.44-.1-4.99-1.67-6.92-1.57-1.94-3.93-3.07-6.43-3.07h-45.87l21.28-99.14h42.47c3.91,0,7.29-2.74,8.1-6.56l8.94-42.2c.52-2.44-.1-4.99-1.67-6.92-1.57-1.94-3.93-3.07-6.43-3.07h-38.94l18.83-88.71h46.43c3.91,0,7.29-2.74,8.1-6.56l8.94-42.2c.52-2.44-.1-4.99-1.67-6.93-1.57-1.94-3.93-3.06-6.43-3.06h-98.81c-3.91,0-7.28,2.73-8.09,6.55l-73.98,347.57c-.52,2.44.09,4.99,1.66,6.93Z"/>
  <path class="cls-1" d="M225.73,404.28c-1.57-1.94-3.93-3.07-6.43-3.07h-45.68c-3.91,0-7.28,2.73-8.09,6.55l-30.38,142.9h-28.76l29.65-139.46c.52-2.44-.09-4.99-1.66-6.93-1.57-1.94-3.93-3.07-6.43-3.07h-45.68c-3.91,0-7.28,2.73-8.09,6.55L.18,755.33c-.52,2.44.09,4.99,1.66,6.93,1.57,1.94,3.93,3.07,6.43,3.07h45.68c3.91,0,7.28-2.73,8.09-6.55l31.87-149.36h28.76l-31.13,145.91c-.52,2.44.09,4.99,1.66,6.93,1.57,1.94,3.94,3.07,6.43,3.07h45.68c3.91,0,7.28-2.73,8.09-6.55l73.98-347.57c.52-2.44-.09-4.99-1.66-6.93Z"/>
  <path class="cls-1" d="M352.04,551.74c-1.57-1.94-3.93-3.07-6.43-3.07h-38.94l18.83-88.71h46.43c3.91,0,7.29-2.74,8.1-6.56l8.94-42.2c.52-2.44-.1-4.99-1.67-6.93-1.57-1.94-3.93-3.06-6.43-3.06h-98.81c-3.91,0-7.28,2.73-8.09,6.55l-73.98,347.57c-.52,2.44.09,4.99,1.66,6.93,1.57,1.94,3.93,3.07,6.43,3.07h101.79c3.91,0,7.29-2.74,8.1-6.56l8.94-42.2c.52-2.44-.1-4.99-1.67-6.92-1.57-1.94-3.93-3.07-6.43-3.07h-45.87l21.28-99.14h42.47c3.91,0,7.29-2.74,8.1-6.56l8.94-42.2c.52-2.44-.1-4.99-1.67-6.92Z"/>
  <path class="cls-1" d="M554.4,481.48c0-49.51-26.95-80.27-70.34-80.27h-54.62c-3.91,0-7.28,2.73-8.09,6.55l-73.98,347.57c-.52,2.44.09,4.99,1.66,6.93,1.57,1.94,3.93,3.07,6.43,3.07h45.68c3.91,0,7.28-2.73,8.09-6.56l30.38-142.9h4.22c5.43,0,9.02,1.05,10.68,3.13,1.83,2.28,3.33,8.04.09,22.62l-24.33,113.7c-.52,2.44.09,4.99,1.66,6.94,1.57,1.94,3.94,3.07,6.43,3.07h46.18c3.9,0,7.27-2.73,8.09-6.54l22.85-106.3c5.52-26.41,7.38-52.41-12.25-67.73,35.21-23.19,51.15-66.91,51.15-103.28ZM453.27,558.11h-1.2l20.82-98.15h6.7c5.52,0,13.07,0,13.07,21.52,0,26.74-13.53,76.63-39.39,76.63Z"/>
  <path class="cls-1" d="M680.78,397.24c-42.41,0-77.74,41.96-102.19,121.34-19.99,64.91-27.24,135.71-27.24,167.47,0,72.44,36.61,83.25,58.42,83.25,42.41,0,77.74-41.96,102.19-121.34,19.99-64.91,27.24-135.71,27.24-167.47,0-72.44-36.61-83.25-58.42-83.25ZM615.74,710.54c-.82,0-4.14-3.65-4.14-20.52,0-25.76,7.99-85.04,21.36-139.66,18.27-74.64,35.37-94.36,41.86-94.36.82,0,4.14,3.65,4.14,20.52,0,25.76-7.99,85.05-21.36,139.67-18.27,74.64-35.37,94.36-41.86,94.36Z"/>
  <path class="cls-1" d="M879.57,551.74c-1.57-1.94-3.93-3.07-6.43-3.07h-38.94l18.83-88.71h46.43c3.91,0,7.29-2.74,8.1-6.56l8.94-42.2c.52-2.44-.1-4.99-1.67-6.93-1.57-1.94-3.93-3.06-6.43-3.06h-98.81c-3.91,0-7.28,2.73-8.09,6.55l-73.98,347.57c-.52,2.44.09,4.99,1.66,6.93,1.57,1.94,3.93,3.07,6.43,3.07h101.79c3.91,0,7.29-2.74,8.1-6.56l8.94-42.2c.52-2.44-.1-4.99-1.67-6.92-1.57-1.94-3.93-3.07-6.43-3.07h-45.87l21.28-99.14h42.47c3.91,0,7.29-2.74,8.1-6.56l8.94-42.2c.52-2.44-.1-4.99-1.67-6.92Z"/>
  <path class="cls-1" d="M1053.71,416.62c-10.53-12.87-25.56-19.39-44.67-19.39-51.14,0-89.71,47.96-89.71,111.55,0,31.87,9.16,59.49,28,84.44l12.48,16.47c9.52,12.24,14.15,27.79,14.15,47.55,0,32.92-12.97,53.29-24.99,53.29-2.35,0-3.4-.68-4.24-1.7-6.19-7.44-5.2-33.48,2.94-77.4.45-2.42-.2-4.91-1.77-6.8-1.57-1.89-3.91-2.98-6.36-2.98h-45.18c-3.92,0-7.31,2.75-8.1,6.59-11.56,55.78-7.69,97.53,11.21,120.75,10.96,13.46,26.29,20.29,45.55,20.29,52.84,0,91.2-50.88,91.2-120.99,0-32.9-8.97-58.75-29.98-86.43l-12.46-16.45c-7.85-10.16-12.18-25.29-12.18-42.6,0-26.27,9.89-46.84,22.51-46.84,3.12,0,3.99,1.06,4.45,1.64,5.15,6.34,3.93,27.83-3.62,63.86-.51,2.44.1,4.98,1.68,6.91,1.57,1.93,3.93,3.06,6.42,3.06h45.18c3.94,0,7.34-2.78,8.11-6.64,10.21-50.72,6.64-87.12-10.61-108.2Z"/>
</svg>